<?xml version="1.0" encoding="UTF-8" standalone="no"?>
<!-- Created with Inkscape (http://www.inkscape.org/) -->

<svg
   width="400"
   height="400"
   viewBox="0 0 105.83333 105.83334"
   version="1.1"
   id="svg5"
   inkscape:version="1.1.2 (0a00cf5339, 2022-02-04, custom)"
   sodipodi:docname="cmus.svg"
   inkscape:export-filename="/home/rin/cmus.png"
   inkscape:export-xdpi="122.87999"
   inkscape:export-ydpi="122.87999"
   xmlns:inkscape="http://www.inkscape.org/namespaces/inkscape"
   xmlns:sodipodi="http://sodipodi.sourceforge.net/DTD/sodipodi-0.dtd"
   xmlns="http://www.w3.org/2000/svg"
   xmlns:svg="http://www.w3.org/2000/svg">
  <sodipodi:namedview
     id="namedview7"
     pagecolor="#505050"
     bordercolor="#eeeeee"
     borderopacity="1"
     inkscape:pageshadow="0"
     inkscape:pageopacity="0"
     inkscape:pagecheckerboard="0"
     inkscape:document-units="mm"
     showgrid="false"
     inkscape:snap-object-midpoints="true"
     inkscape:snap-center="false"
     showguides="false"
     inkscape:object-nodes="true"
     inkscape:object-paths="false"
     units="px"
     inkscape:zoom="1.6406062"
     inkscape:cx="26.819355"
     inkscape:cy="274.28886"
     inkscape:window-width="1916"
     inkscape:window-height="1056"
     inkscape:window-x="0"
     inkscape:window-y="20"
     inkscape:window-maximized="1"
     inkscape:current-layer="layer1" />
  <defs
     id="defs2" />
  <g
     inkscape:label="Layer 1"
     inkscape:groupmode="layer"
     id="layer1">
    <rect
       style="fill:#222222;fill-opacity:1;stroke:none;stroke-width:5.29166;stroke-linecap:butt;stroke-miterlimit:4;stroke-dasharray:none"
       id="rect3897"
       width="105.83334"
       height="105.83334"
       x="0"
       y="0" />
    <g
       id="g4900"
       transform="translate(-0.25920025)">
      <path
         id="path846"
         style="fill:#ffffff;stroke-width:0.128968"
         d="m 47.624997,26.458337 a 26.458333,26.458333 0 0 0 -26.45833,26.45833 26.458333,26.458333 0 0 0 26.45833,26.45834 26.458333,26.458333 0 0 0 13.30306,-3.591 l -2.64945,-4.57957 a 21.166666,21.166666 0 0 1 -10.65361,2.8789 21.166666,21.166666 0 0 1 -21.16667,-21.16667 21.166666,21.166666 0 0 1 21.16667,-21.16666 21.166666,21.166666 0 0 1 10.63655,2.86907 l 2.63189,-4.59093 a 26.458333,26.458333 0 0 0 -13.26844,-3.56981 z" />
      <path
         id="path4262"
         style="color:#000000;fill:#ffffff;stroke-width:0.803908;-inkscape-stroke:none"
         d="M 73.278828,41.010422 V 51.074236 L 64.563087,46.042536 63.5,47.884557 72.216154,52.916255 63.5,57.948786 l 1.063087,1.84202 8.715741,-5.032945 v 10.065061 h 2.127421 V 54.757861 l 8.71574,5.032945 1.063088,-1.84202 -8.716156,-5.032531 8.716156,-5.031698 -1.063088,-1.842021 -8.71574,5.0317 V 41.010422 Z" />
    </g>
  </g>
</svg>
